<svg width="180" height="57" viewBox="0 0 180 57" fill="none" xmlns="http://www.w3.org/2000/svg">
<g clip-path="url(#clip0)">
<path d="M149.122 56.242L147.561 50.1326H148.395L149.122 53.223C149.305 53.9855 149.466 54.7436 149.568 55.3367C149.666 54.7258 149.858 53.9989 150.068 53.214L150.879 50.1326H151.704L152.449 53.2319C152.623 53.9588 152.783 54.6812 152.895 55.3278C153.02 54.6544 153.194 53.99 153.381 53.214L154.188 50.1326H154.995L153.265 56.242H152.467L151.695 53.0579C151.527 52.4012 151.394 51.7358 151.298 51.0646C151.176 51.7369 151.018 52.4023 150.826 53.0579L149.956 56.242H149.122Z" fill="#EA1B3D"/>
<path d="M163.731 53.1248C163.731 55.2252 162.456 56.3401 160.895 56.3401C159.334 56.3401 158.152 55.0914 158.152 53.2408C158.152 51.3009 159.356 50.0345 160.989 50.0345C162.621 50.0345 163.731 51.3099 163.731 53.1248ZM158.991 53.2229C158.991 54.5296 159.7 55.6979 160.94 55.6979C162.179 55.6979 162.897 54.5474 162.897 53.1605C162.897 51.9431 162.264 50.6766 160.953 50.6766C159.642 50.6766 158.991 51.8807 158.991 53.2229Z" fill="#EA1B3D"/>
<path d="M168.476 56.242L166.924 50.1326H167.758L168.485 53.223C168.663 53.9855 168.828 54.7436 168.931 55.3367C169.033 54.7258 169.221 53.9989 169.43 53.214L170.246 50.1326H171.071L171.816 53.2319C171.985 53.9588 172.15 54.6812 172.24 55.3278C172.369 54.6544 172.538 53.99 172.73 53.214L173.537 50.1326H174.344L172.614 56.242H171.789L171.018 53.0579C170.848 52.4013 170.714 51.7358 170.616 51.0646C170.498 51.7373 170.342 52.4028 170.148 53.0579L169.279 56.242H168.476Z" fill="#EA1B3D"/>
<path d="M177.685 55.7782C177.68 55.7055 177.691 55.6328 177.716 55.5645C177.741 55.4961 177.78 55.4337 177.83 55.381C177.88 55.3283 177.941 55.2865 178.008 55.2581C178.075 55.2298 178.147 55.2156 178.22 55.2163C178.369 55.2163 178.512 55.2755 178.617 55.3809C178.722 55.4862 178.782 55.6292 178.782 55.7782C178.782 55.9272 178.722 56.0701 178.617 56.1755C178.512 56.2809 178.369 56.3401 178.22 56.3401C178.147 56.3408 178.075 56.3266 178.008 56.2982C177.941 56.2699 177.88 56.2281 177.83 56.1754C177.78 56.1227 177.741 56.0602 177.716 55.9919C177.691 55.9236 177.68 55.8508 177.685 55.7782ZM177.912 54.485L177.783 50.1326H178.675L178.55 54.485H177.912Z" fill="#EA1B3D"/>
<path d="M44.0543 28.0407C44.3085 27.898 45.6552 27.0329 46.9574 26.3016C47.1227 26.2211 47.304 26.1789 47.4879 26.1783C47.6717 26.1776 47.8534 26.2184 48.0193 26.2977C48.1852 26.377 48.331 26.4928 48.446 26.6363C48.5609 26.7798 48.642 26.9474 48.6832 27.1266C50.3777 32.2058 55.9564 32.625 58.9398 29.8022L57.4637 28.9103C56.5049 28.344 56.5183 27.4476 57.4994 26.917L64.679 23.0195C65.6556 22.4888 66.4628 22.9615 66.4628 24.0763V32.1924C66.4628 33.3073 65.6868 33.7532 64.7236 33.1913L63.1807 32.2682C59.8673 37.9138 48.9106 39.3453 43.6262 30.3463C43.6574 30.3552 42.5559 28.8836 44.0543 28.0407Z" fill="#EA1B3D"/>
<path d="M88.064 56.0499C87.5542 56.2601 87.0053 56.3589 86.4541 56.3398C84.7284 56.3398 83.4351 55.2517 83.4351 53.2494C83.4108 52.8235 83.4764 52.3972 83.6278 51.9984C83.7791 51.5995 84.0129 51.237 84.3137 50.9345C84.6145 50.632 84.9757 50.3963 85.3737 50.2427C85.7717 50.0891 86.1976 50.0211 86.6236 50.0431C87.1213 50.0203 87.6174 50.1134 88.0729 50.3151L87.8856 50.9573C87.498 50.7814 87.0759 50.6945 86.6504 50.7031C85.2189 50.7031 84.2691 51.6173 84.2691 53.2227C84.2691 54.7165 85.1297 55.6798 86.6147 55.6798C87.0572 55.6852 87.4961 55.5986 87.9035 55.4256L88.064 56.0499Z" fill="white"/>
<path d="M91.7742 50.2215C92.2733 50.1338 92.7793 50.092 93.2859 50.0966C93.9226 50.0278 94.5613 50.2067 95.0697 50.5961C95.2276 50.7439 95.3518 50.924 95.4342 51.124C95.5165 51.324 95.5549 51.5394 95.5469 51.7555C95.5512 52.105 95.4412 52.4462 95.2334 52.7272C95.0257 53.0082 94.7317 53.2136 94.3963 53.3118V53.3386C94.6402 53.4482 94.851 53.6201 95.0076 53.8369C95.1641 54.0537 95.2609 54.3078 95.2882 54.5739C95.3969 55.1454 95.555 55.7064 95.7609 56.2506H94.9404C94.7593 55.7785 94.6234 55.2902 94.5346 54.7924C94.3517 53.9495 94.0262 53.6285 93.3082 53.6017H92.568V56.2506H91.7742V50.2215ZM92.5635 53.0041H93.3662C94.2135 53.0041 94.7442 52.5582 94.7442 51.8447C94.7442 51.0554 94.1734 50.712 93.3395 50.7031C93.0789 50.6957 92.8184 50.7197 92.5635 50.7744V53.0041Z" fill="white"/>
<path d="M102.521 53.3877H100.158V55.5861H102.802V56.2506H99.3686V50.1412H102.669V50.8012H100.158V52.7321H102.521V53.3877Z" fill="white"/>
<path d="M107.534 54.3375L106.9 56.2595H106.089L108.167 50.1501H109.117L111.204 56.2595H110.361L109.701 54.3375H107.534ZM109.54 53.7221L108.938 51.9606C108.805 51.5638 108.715 51.2026 108.622 50.8458C108.533 51.2115 108.435 51.5816 108.314 51.9517L107.717 53.7355L109.54 53.7221Z" fill="white"/>
<path d="M115.275 50.8101H113.42V50.1412H117.942V50.8101H116.073V56.2506H115.275V50.8101Z" fill="white"/>
<path d="M122.143 50.1412V56.2506H121.34V50.1412H122.143Z" fill="white"/>
<path d="M126.228 56.2506V50.1412H127.088L129.046 53.2316C129.453 53.8693 129.819 54.5321 130.143 55.216C130.072 54.3999 130.049 53.6597 130.049 52.7054V50.1501H130.794V56.2595H129.996L128.056 53.1602C127.635 52.5026 127.254 51.8206 126.914 51.1178H126.887C126.932 51.8893 126.95 52.6251 126.95 53.6374V56.2506H126.228Z" fill="white"/>
<path d="M139.561 55.9786C138.958 56.1929 138.324 56.3059 137.684 56.313C137.268 56.3514 136.848 56.2983 136.455 56.1576C136.061 56.0169 135.704 55.7919 135.406 55.4984C135.109 55.2048 134.879 54.8499 134.733 54.4583C134.588 54.0668 134.529 53.6481 134.562 53.2316C134.562 51.4077 135.82 50.0788 137.867 50.0788C138.389 50.0649 138.908 50.1606 139.392 50.3597L139.2 51.0019C138.778 50.8187 138.322 50.729 137.862 50.7388C137.533 50.7133 137.202 50.7593 136.893 50.8739C136.584 50.9884 136.303 51.1686 136.07 51.4021C135.836 51.6357 135.657 51.917 135.543 52.2266C135.429 52.5363 135.383 52.867 135.409 53.1959C135.409 54.7433 136.341 55.6619 137.764 55.6619C138.122 55.6802 138.481 55.624 138.816 55.497V53.6775H137.572V53.0398H139.588L139.561 55.9786Z" fill="white"/>
<path d="M4.78493 2.8005H0.316617C0.141754 2.8005 0 2.94226 0 3.11712V36.0765C0 36.2514 0.141754 36.3931 0.316617 36.3931H4.78493C4.95979 36.3931 5.10155 36.2514 5.10155 36.0765V3.11712C5.10155 2.94226 4.95979 2.8005 4.78493 2.8005Z" fill="white"/>
<path d="M25.9671 15.2288C25.2001 14.5139 24.2873 13.9738 23.2914 13.6457C22.2744 13.3095 21.2098 13.1394 20.1386 13.1418C18.5106 13.1102 16.9022 13.5004 15.4696 14.2745C14.5276 14.7788 13.7166 15.4966 13.1017 16.3704V14.0159C13.1017 13.9319 13.0683 13.8514 13.009 13.792C12.9496 13.7326 12.8691 13.6993 12.7851 13.6993H8.59326C8.55188 13.6993 8.51093 13.7075 8.47276 13.7234C8.43459 13.7394 8.39998 13.7628 8.37093 13.7923C8.34189 13.8217 8.31899 13.8567 8.30357 13.8951C8.28814 13.9334 8.28051 13.9745 8.2811 14.0159V36.081C8.28051 36.1223 8.28814 36.1634 8.30357 36.2018C8.31899 36.2402 8.34189 36.2751 8.37093 36.3046C8.39998 36.334 8.43459 36.3574 8.47276 36.3734C8.51093 36.3894 8.55188 36.3976 8.59326 36.3976H12.7851C12.8691 36.3976 12.9496 36.3642 13.009 36.3048C13.0683 36.2455 13.1017 36.1649 13.1017 36.081V24.7229C13.0785 23.6372 13.229 22.5547 13.5476 21.5166C13.7978 20.7067 14.2191 19.96 14.7829 19.327C15.2862 18.7725 15.9145 18.3459 16.6157 18.0828C17.9292 17.5891 19.3701 17.5483 20.7094 17.9669C21.2663 18.1491 21.7753 18.4539 22.1989 18.8588C22.6613 19.329 23.0172 19.8933 23.2424 20.5132C23.5249 21.3224 23.6594 22.1759 23.6393 23.0328V36.081C23.6393 36.1649 23.6726 36.2455 23.732 36.3048C23.7914 36.3642 23.8719 36.3976 23.9559 36.3976H28.1432C28.2272 36.3976 28.3078 36.3642 28.3671 36.3048C28.4265 36.2455 28.4599 36.1649 28.4599 36.081V21.8823C28.4873 20.5476 28.2587 19.22 27.7865 17.9714C27.3865 16.9358 26.7656 16 25.9671 15.2288Z" fill="white"/>
<path d="M44.5092 15.8219C45.0973 15.1892 45.7323 14.6019 46.4089 14.0649C46.6141 13.9133 46.3331 13.6993 46.1592 13.6993H38.333V8.94109C38.3287 8.26149 38.3674 7.58231 38.4489 6.9076C38.5027 6.40145 38.6622 5.91225 38.9172 5.47168C39.1476 5.08939 39.4815 4.78017 39.8804 4.5798C40.423 4.34617 41.0114 4.23795 41.6017 4.26318C41.99 4.2618 42.3777 4.29163 42.7611 4.35237C43.1376 4.42044 43.5065 4.52499 43.8626 4.66453C43.9077 4.68138 43.956 4.68772 44.004 4.68309C44.0519 4.67845 44.0981 4.66295 44.1391 4.63777C44.1805 4.6134 44.2157 4.57979 44.242 4.53957C44.2683 4.49935 44.285 4.4536 44.2907 4.40588L44.7367 0.682288C44.7477 0.606455 44.7301 0.529228 44.6872 0.46572C44.6443 0.402212 44.5792 0.356994 44.5048 0.338914C43.945 0.185798 43.3714 0.0887002 42.7924 0.0490536C42.2662 0.0178379 41.7667 0 41.3074 0C38.4534 0 36.402 0.771476 35.2159 2.28767C34.0297 3.80386 33.4321 6.06478 33.4321 9.07041V13.6993H29.0351C28.9512 13.6993 28.8706 13.7326 28.8112 13.792C28.7519 13.8514 28.7185 13.9319 28.7185 14.0159V17.6458C28.7185 17.7298 28.7519 17.8103 28.8112 17.8697C28.8706 17.9291 28.9512 17.9624 29.0351 17.9624H33.4678V36.081C33.4672 36.1223 33.4748 36.1634 33.4902 36.2018C33.5057 36.2402 33.5286 36.2751 33.5576 36.3046C33.5867 36.334 33.6213 36.3574 33.6594 36.3734C33.6976 36.3894 33.7386 36.3976 33.7799 36.3976H37.9718C38.0557 36.3976 38.1363 36.3642 38.1956 36.3048C38.255 36.2455 38.2884 36.1649 38.2884 36.081V17.9624H42.6541C42.8637 17.9624 42.9707 17.9624 43.1001 17.7618C43.5247 17.0836 43.9955 16.4354 44.5092 15.8219Z" fill="white"/>
<path d="M90.2716 21.0439C89.6092 20.2895 88.8123 19.665 87.9214 19.2022C87.3336 18.9007 86.7082 18.6788 86.0619 18.5422C87.3044 18.0102 88.4144 17.2108 89.3128 16.201C90.4531 14.8531 91.0467 13.1267 90.9761 11.3625C91.0048 10.0531 90.7316 8.75457 90.1779 7.56759C89.6669 6.51702 88.9171 5.60069 87.9883 4.89196C87.0044 4.1707 85.8943 3.63982 84.7151 3.32671C83.3966 2.97144 82.036 2.79594 80.6705 2.80496H69.1965C69.1551 2.80496 69.1141 2.81318 69.076 2.82914C69.0378 2.84511 69.0032 2.8685 68.9741 2.89796C68.9451 2.92742 68.9222 2.96236 68.9068 3.00075C68.8913 3.03914 68.8837 3.08021 68.8843 3.12158V36.081C68.8837 36.1223 68.8913 36.1634 68.9068 36.2018C68.9222 36.2402 68.9451 36.2751 68.9741 36.3046C69.0032 36.334 69.0378 36.3574 69.076 36.3734C69.1141 36.3894 69.1551 36.3976 69.1965 36.3976H80.5099C82.0712 36.4111 83.6266 36.2039 85.1299 35.7822C86.4861 35.4025 87.7647 34.7866 88.907 33.9628C89.9794 33.1788 90.8618 32.1638 91.489 30.9928C92.1356 29.7314 92.4604 28.3297 92.4344 26.9124C92.4528 24.7604 91.689 22.6749 90.2849 21.0439H90.2716ZM85.1299 14.007C84.8387 14.5736 84.4168 15.0627 83.8991 15.434C83.3464 15.8262 82.7198 16.1023 82.0574 16.2456C81.3001 16.4114 80.527 16.4937 79.7518 16.4908H73.9814V7.34908H80.6928C82.3918 7.34908 83.6404 7.79502 84.4119 8.6869C85.1896 9.56522 85.611 10.7024 85.5936 11.8754C85.6148 12.613 85.4556 13.3447 85.1299 14.007ZM73.9814 21.035H80.2736C82.365 21.035 84.0373 21.5077 85.2503 22.4352C86.4632 23.3628 87.034 24.714 87.034 26.5869C87.0839 27.528 86.8443 28.4618 86.3473 29.2625C85.8999 29.9173 85.3137 30.4655 84.6304 30.8679C83.9529 31.2678 83.2077 31.5399 82.4319 31.6706C81.7044 31.799 80.9677 31.8676 80.229 31.8758H73.9814V21.035Z" fill="white"/>
<path d="M113.768 16.9635C112.84 15.8017 111.668 14.8579 110.334 14.1987C108.74 13.4521 106.993 13.0901 105.233 13.1418C103.626 13.121 102.032 13.4243 100.546 14.0337C99.1535 14.6135 97.8918 15.4673 96.8358 16.5444C95.786 17.6354 94.9576 18.9196 94.3965 20.3259C93.7957 21.8211 93.4928 23.4192 93.5046 25.0306C93.4932 26.6317 93.7681 28.2219 94.3162 29.7263C94.8299 31.1309 95.6199 32.4183 96.6396 33.5124C97.6804 34.6111 98.9417 35.4773 100.341 36.0542C101.885 36.6705 103.535 36.9737 105.197 36.9461C109.469 36.9461 112.841 35.3853 115.222 32.3083C115.248 32.2762 115.267 32.239 115.278 32.199C115.289 32.1591 115.291 32.1173 115.284 32.0764C115.28 32.035 115.267 31.995 115.246 31.9589C115.226 31.9228 115.197 31.8915 115.164 31.8668L111.998 29.4454C111.965 29.4192 111.928 29.3998 111.888 29.3881C111.848 29.3764 111.806 29.3727 111.765 29.3773C111.723 29.3819 111.683 29.3945 111.647 29.4146C111.61 29.4348 111.578 29.4619 111.552 29.4944C110.827 30.4086 109.956 31.1967 108.974 31.8267C108.002 32.4143 106.882 32.7114 105.746 32.6829C104.835 32.6834 103.931 32.5327 103.07 32.237C102.244 31.9581 101.474 31.5354 100.796 30.9883C100.147 30.457 99.6112 29.8003 99.2216 29.0574C98.8695 28.3869 98.67 27.6468 98.6374 26.8901H115.989C116.072 26.8901 116.151 26.8573 116.21 26.7987C116.268 26.7402 116.301 26.6608 116.301 26.578V25.093C116.302 23.6396 116.102 22.1931 115.708 20.7942C115.322 19.4011 114.663 18.0988 113.768 16.9635ZM105.139 17.1241C106.043 17.0997 106.942 17.2511 107.788 17.57C108.498 17.8579 109.135 18.2978 109.657 18.8588C110.158 19.4123 110.539 20.0637 110.776 20.7719C111.007 21.4656 111.145 22.1869 111.186 22.9168H98.624C98.6681 22.2894 98.8189 21.6741 99.0699 21.0974C99.3876 20.3619 99.833 19.6886 100.385 19.1085C100.977 18.4992 101.679 18.0088 102.455 17.6637C103.301 17.2942 104.216 17.1102 105.139 17.1241Z" fill="white"/>
<path d="M137.068 32.0764V20.812C137.07 19.8219 136.881 18.8407 136.511 17.9223C136.124 16.9814 135.531 16.1388 134.776 15.4563C133.911 14.6949 132.898 14.1183 131.802 13.7617C130.423 13.3225 128.981 13.1131 127.534 13.1418C125.911 13.1483 124.301 13.4287 122.772 13.9713C121.216 14.5132 119.788 15.3676 118.575 16.4819C118.546 16.511 118.522 16.5457 118.506 16.584C118.49 16.6223 118.482 16.6634 118.482 16.7049C118.482 16.7464 118.49 16.7875 118.506 16.8258C118.522 16.8641 118.546 16.8988 118.575 16.9279L121.068 19.5544C121.121 19.6106 121.193 19.645 121.269 19.6507C121.346 19.6565 121.422 19.6333 121.483 19.5857C121.857 19.3092 122.245 19.0104 122.651 18.6938C123.052 18.3869 123.486 18.1252 123.944 17.9134C124.458 17.6772 124.993 17.4891 125.541 17.3515C126.208 17.1935 126.893 17.1186 127.579 17.1285C128.339 17.1091 129.096 17.2347 129.809 17.4987C130.378 17.7244 130.896 18.0643 131.329 18.4976C131.716 18.9041 132.019 19.3829 132.221 19.9067C132.418 20.4038 132.52 20.933 132.524 21.4675V22.0829H129.768C128.166 22.0751 126.566 22.2094 124.988 22.4843C123.604 22.7112 122.266 23.1631 121.028 23.8221C119.934 24.405 119 25.2471 118.308 26.2748C117.717 27.2925 117.375 28.4355 117.311 29.6105C117.247 30.7855 117.461 31.9591 117.938 33.0352C118.349 33.8818 118.943 34.6266 119.677 35.2158C120.436 35.8112 121.302 36.2562 122.228 36.5269C123.214 36.8157 124.237 36.957 125.264 36.9461C126.83 36.9806 128.385 36.6764 129.822 36.0542C130.993 35.4842 132.008 34.6379 132.779 33.5882C132.779 34.431 132.841 35.2783 132.912 36.1166C132.919 36.1959 132.955 36.2697 133.014 36.3234C133.073 36.3771 133.149 36.4068 133.229 36.4065H136.953C136.996 36.4072 137.04 36.3983 137.08 36.3806C137.12 36.3629 137.155 36.3368 137.184 36.3039C137.215 36.2711 137.237 36.2323 137.251 36.19C137.265 36.1477 137.27 36.1029 137.265 36.0587C137.202 35.4789 137.158 34.8591 137.126 34.2125C137.095 33.5659 137.068 32.8479 137.068 32.0764ZM132.524 25.7976V26.8768C132.52 27.6116 132.415 28.3423 132.212 29.0485C132.007 29.7635 131.661 30.4305 131.195 31.0106C130.696 31.6185 130.067 32.1062 129.354 32.4376C128.474 32.8242 127.519 33.0116 126.558 32.9861C125.407 33.0474 124.262 32.7749 123.262 32.2013C122.495 31.6974 122.125 30.8635 122.125 29.7174C122.11 29.365 122.167 29.0132 122.291 28.683C122.415 28.3528 122.604 28.051 122.847 27.7954C123.403 27.2392 124.077 26.8155 124.819 26.5557C125.712 26.2424 126.641 26.0373 127.583 25.9448C128.591 25.8432 129.603 25.7941 130.616 25.7976H132.524Z" fill="white"/>
<path d="M157.261 15.2288C156.495 14.5121 155.582 13.9717 154.585 13.6457C153.569 13.3095 152.506 13.1394 151.437 13.1418C149.809 13.1102 148.2 13.5004 146.768 14.2745C145.825 14.78 145.013 15.4975 144.395 16.3704V14.0159C144.396 13.9745 144.388 13.9334 144.373 13.8951C144.357 13.8567 144.334 13.8217 144.305 13.7923C144.276 13.7628 144.242 13.7394 144.204 13.7234C144.165 13.7075 144.124 13.6993 144.083 13.6993H139.891C139.807 13.6993 139.727 13.7326 139.667 13.792C139.608 13.8514 139.575 13.9319 139.575 14.0159V36.081C139.575 36.1649 139.608 36.2455 139.667 36.3049C139.727 36.3642 139.807 36.3976 139.891 36.3976H144.083C144.124 36.3976 144.165 36.3894 144.204 36.3734C144.242 36.3574 144.276 36.334 144.305 36.3046C144.334 36.2751 144.357 36.2402 144.373 36.2018C144.388 36.1634 144.396 36.1223 144.395 36.081V24.7229C144.372 23.6372 144.523 22.5547 144.841 21.5166C145.093 20.7075 145.514 19.9612 146.076 19.327C146.581 18.7723 147.211 18.3458 147.914 18.0828C149.227 17.5891 150.668 17.5483 152.007 17.9669C152.563 18.1493 153.07 18.4541 153.492 18.8588C153.956 19.3279 154.312 19.8925 154.536 20.5132C154.819 21.3224 154.953 22.1759 154.933 23.0328V36.081C154.933 36.1649 154.966 36.2455 155.026 36.3049C155.085 36.3642 155.165 36.3976 155.249 36.3976H159.441C159.525 36.3976 159.606 36.3642 159.665 36.3049C159.725 36.2455 159.758 36.1649 159.758 36.081V21.8823C159.786 20.5471 159.556 19.2191 159.08 17.9714C158.682 16.935 158.061 15.9987 157.261 15.2288Z" fill="white"/>
<path d="M178.844 26.966C178.513 26.2286 178.024 25.5726 177.413 25.044C176.777 24.5026 176.053 24.0743 175.272 23.7775C174.428 23.449 173.562 23.1793 172.681 22.9703L171.004 22.6448C170.392 22.5297 169.794 22.3488 169.221 22.1052C168.706 21.8934 168.233 21.5914 167.825 21.2133C167.648 21.0394 167.51 20.8307 167.419 20.6003C167.327 20.37 167.285 20.1231 167.294 19.8755C167.285 19.5525 167.368 19.2335 167.534 18.9562C167.7 18.6788 167.942 18.4547 168.231 18.3103C168.973 17.9027 169.81 17.6995 170.657 17.7216C171.534 17.6925 172.403 17.8956 173.176 18.3103C173.847 18.6898 174.44 19.1921 174.924 19.7908C174.95 19.824 174.981 19.8519 175.018 19.8728C175.054 19.8938 175.094 19.9073 175.135 19.9127C175.177 19.9181 175.219 19.9152 175.259 19.9042C175.299 19.8933 175.337 19.8744 175.37 19.8488L178.63 17.3248C178.692 17.2769 178.735 17.2077 178.75 17.1304C178.765 17.0532 178.751 16.9731 178.71 16.9056C177.916 15.5918 176.72 14.569 175.299 13.9891C172.906 13.0086 170.255 12.8517 167.762 13.5432C166.756 13.8208 165.806 14.2704 164.953 14.8721C164.126 15.4543 163.441 16.2167 162.951 17.1018C162.428 18.0705 162.165 19.1584 162.188 20.259C162.159 21.2265 162.363 22.1868 162.781 23.0595C163.161 23.7955 163.702 24.4359 164.364 24.9325C165.043 25.4333 165.795 25.8259 166.594 26.0964C167.41 26.3773 168.284 26.6315 169.198 26.8545C169.644 26.9437 170.193 27.0596 170.795 27.1979C171.366 27.3293 171.924 27.5114 172.463 27.7419C172.949 27.9494 173.389 28.2527 173.756 28.6338C173.926 28.8107 174.058 29.0209 174.143 29.2511C174.228 29.4813 174.265 29.7265 174.251 29.9716C174.26 30.3485 174.142 30.7176 173.916 31.0196C173.669 31.3472 173.354 31.6179 172.993 31.8133C172.575 32.0421 172.124 32.2046 171.656 32.2949C171.147 32.397 170.631 32.4492 170.113 32.451C169.081 32.4788 168.064 32.2078 167.183 31.6706C166.375 31.1615 165.627 30.5632 164.953 29.8869C164.895 29.8345 164.819 29.8056 164.741 29.8056C164.663 29.8056 164.588 29.8345 164.529 29.8869L161.386 32.4867C161.352 32.512 161.324 32.5438 161.303 32.5802C161.282 32.6165 161.269 32.6567 161.264 32.6983C161.259 32.7399 161.263 32.7821 161.274 32.8224C161.286 32.8626 161.306 32.9001 161.332 32.9326C162.285 34.3331 163.614 35.4354 165.167 36.1122C166.746 36.7032 168.423 36.9863 170.108 36.9461C171.22 36.9463 172.329 36.8192 173.413 36.567C174.47 36.3306 175.476 35.9061 176.382 35.314C177.257 34.7257 177.99 33.9504 178.527 33.0441C179.104 32.0241 179.392 30.8664 179.361 29.6951C179.385 28.759 179.208 27.8286 178.844 26.966Z" fill="white"/>
<path d="M47.8315 23.8667C48.0444 22.3418 48.7741 20.9361 49.8987 19.8844C51.0234 18.8328 52.4748 18.199 54.0106 18.0889C55.5464 17.9787 57.0735 18.3989 58.3367 19.2793C59.5999 20.1596 60.5227 21.4468 60.951 22.9258C60.9643 22.9695 60.9866 23.0101 61.0166 23.0446C61.0466 23.0792 61.0835 23.1071 61.1249 23.1264C61.1657 23.1442 61.2098 23.1533 61.2543 23.1532C61.3008 23.154 61.3467 23.1433 61.388 23.122L65.4015 21.2C65.4721 21.166 65.5275 21.1071 65.5572 21.0346C65.5868 20.9621 65.5885 20.8812 65.562 20.8075C64.5803 18.0455 62.6031 15.7492 60.0174 14.3682C57.4317 12.9872 54.4237 12.621 51.5822 13.3411C48.7407 14.0613 46.2702 15.816 44.6543 18.2618C43.0385 20.7076 42.3936 23.6684 42.8459 26.5646C42.8537 26.6161 42.8742 26.6649 42.9054 26.7066C42.9366 26.7483 42.9777 26.7816 43.0248 26.8037C43.072 26.8258 43.1239 26.8358 43.176 26.833C43.228 26.8302 43.2785 26.8146 43.323 26.7876L47.6799 24.112C47.7225 24.0857 47.7584 24.0499 47.7848 24.0073C47.8111 23.9647 47.8271 23.9166 47.8315 23.8667Z" fill="white"/>
</g>
<defs>
<clipPath id="clip0">
<rect width="179.361" height="56.34" fill="white"/>
</clipPath>
</defs>
</svg>
